<svg width="714" height="652" viewBox="0 0 714 652" fill="none" xmlns="http://www.w3.org/2000/svg">
<g clip-path="url(#clip0_338_210)">
<path d="M138.049 133.483C174.909 133.483 204.79 103.602 204.79 66.7414C204.79 29.8811 174.909 0 138.049 0C101.189 0 71.3076 29.8811 71.3076 66.7414C71.3076 103.602 101.189 133.483 138.049 133.483Z" fill="#5B7553"/>
<path d="M345.898 138.466C343.696 134.752 334.167 138.728 332.415 135.358C330.669 131.999 339.523 126.882 344.581 115.192C345.493 113.084 351.241 99.7993 346.986 95.7001C338.92 87.9302 302.011 119.995 289.094 109.502C286.26 107.199 284.279 102.602 275.7 95.1381C272.287 92.1689 270.223 90.8283 268.226 91.3271C265.392 92.0348 265.167 95.8278 262.128 103.286C257.571 114.471 254.875 113.795 252.22 122.719C250.248 129.343 250.699 133.195 248.379 133.945C245.096 135.007 242.075 127.98 237.915 128.609C233.67 129.251 231.103 137.432 230.293 143.558C228.772 155.052 232.993 162.637 235.333 170.613C237.875 179.28 239.384 192.461 233.512 211.121L175.396 374.866C188.226 341.266 225.376 249.16 240.987 214.932C245.493 205.052 250.469 195.03 260.686 191.074C270.522 187.266 284.031 189.54 301.253 185.391C303.265 184.906 308.846 183.486 309.549 180.203C310.13 177.489 306.847 175.974 307.351 173.432C308.028 170.022 314.484 169.98 322.418 166.046C328.012 163.272 331.498 159.973 334.495 157.136C335.399 156.281 348.83 143.41 345.898 138.466Z" fill="#F1E9DA"/>
<path d="M117.249 224.668C114.79 224.678 113.993 230.502 111.833 230.389C109.681 230.277 109.724 224.455 105.446 218.6C104.674 217.544 99.8125 210.889 96.5727 211.795C90.432 213.512 95.5201 240.879 86.6431 244.191C84.6951 244.918 81.8673 244.563 75.7287 246.621C73.2866 247.439 72.0332 248.065 71.7016 249.189C71.2313 250.784 73.0281 251.989 75.8117 255.633C79.9862 261.097 78.8769 262.225 82.4904 266.103C85.173 268.982 87.1932 269.872 86.8921 271.227C86.4662 273.144 82.1458 272.6 81.2543 274.823C80.3446 277.092 83.6194 280.712 86.3918 282.877C91.5945 286.94 96.5352 287.057 101.125 288.21C106.112 289.463 113.017 292.525 120.481 300.791L184.08 376.561C171.291 360.569 136.803 315.76 124.508 298.222C120.959 293.16 117.476 287.826 118.483 281.67C119.452 275.744 124.465 269.769 127.398 260.119C127.741 258.992 128.654 255.843 127.246 254.551C126.081 253.483 124.39 254.657 123.288 253.676C121.81 252.36 123.652 249.179 124.01 244.15C124.263 240.604 123.65 237.942 123.122 235.652C122.963 234.962 120.521 224.656 117.249 224.668Z" fill="#F1E9DA"/>
<path d="M166.293 235.678L164.812 222.456L165.488 221.453C168.62 216.818 170.216 212.292 170.235 207.995C170.238 207.312 170.206 206.629 170.174 205.933C170.047 203.175 169.887 199.747 171.675 195.75C172.677 193.522 175.492 188.364 179.725 189.002C180.865 189.162 181.727 189.685 182.381 190.298C182.477 190.145 182.576 189.992 182.681 189.826C184 187.815 185.043 186.953 186.049 186.123C186.821 185.484 187.619 184.827 188.871 183.269C189.42 182.586 189.848 181.986 190.208 181.481C191.303 179.956 192.733 178.136 195.255 178.168C197.949 178.296 199.36 180.524 200.295 181.998C201.965 184.629 202.721 186.525 203.223 187.783C203.405 188.242 203.612 188.759 203.717 188.919C204.586 190.196 211.644 189.002 214.303 188.568C220.275 187.572 225.443 186.71 227.572 190.477C229.098 193.171 227.965 196.733 224.102 201.349C222.899 202.786 221.619 203.877 220.483 204.733C221.424 205.295 222.267 206.157 222.609 207.51C223.413 210.715 220.658 213.926 214.424 217.067C212.876 217.853 210.791 218.9 207.87 219.404C206.495 219.64 205.256 219.698 204.196 219.73C204.174 220.343 204.03 221.007 203.657 221.69C202.562 223.701 200.283 224.658 196.848 224.429C193.068 224.231 189.956 223.509 187.211 222.877C184.814 222.328 182.748 221.862 181.127 221.971C178.12 222.213 175.802 224.62 173.082 227.742L166.293 235.678Z" fill="#F2F2F2"/>
<path d="M173.165 156.954L160.751 161.74L159.61 161.34C154.332 159.487 149.549 159.091 145.388 160.162C144.726 160.332 144.073 160.537 143.408 160.744C140.773 161.567 137.497 162.591 133.178 161.876C130.768 161.471 125.064 160.056 124.608 155.8C124.474 154.657 124.761 153.691 125.188 152.902C125.016 152.849 124.842 152.792 124.655 152.732C122.375 151.967 121.277 151.176 120.219 150.414C119.406 149.828 118.567 149.223 116.743 148.408C115.943 148.05 115.254 147.788 114.674 147.567C112.921 146.895 110.798 145.974 110.189 143.526C109.629 140.888 111.427 138.958 112.616 137.679C114.737 135.397 116.379 134.184 117.469 133.38C117.867 133.088 118.315 132.756 118.442 132.613C119.457 131.45 116.512 124.925 115.418 122.464C112.94 116.939 110.795 112.159 113.898 109.144C116.118 106.984 119.851 107.177 125.296 109.742C126.99 110.542 128.371 111.503 129.487 112.385C129.791 111.332 130.411 110.298 131.634 109.625C134.53 108.034 138.335 109.884 142.955 115.117C144.107 116.416 145.649 118.166 146.877 120.864C147.455 122.135 147.824 123.318 148.124 124.335C148.723 124.201 149.401 124.172 150.157 124.36C152.38 124.909 153.884 126.871 154.533 130.251C155.3 133.958 155.392 137.151 155.477 139.967C155.554 142.425 155.627 144.541 156.143 146.082C157.141 148.929 160.057 150.56 163.766 152.399L173.165 156.954Z" fill="#F1E9DA"/>
<path d="M166.293 118.002L164.812 104.78L165.488 103.778C168.62 99.1429 170.216 94.6164 170.235 90.3198C170.238 89.6367 170.206 88.9535 170.174 88.2577C170.047 85.4997 169.887 82.0713 171.675 78.0748C172.677 75.8467 175.492 70.6881 179.725 71.3266C180.865 71.4862 181.727 72.0096 182.381 72.6225C182.477 72.4693 182.576 72.3161 182.681 72.1501C184 70.139 185.043 69.2772 186.049 68.4472C186.821 67.8088 187.619 67.1512 188.871 65.5934C189.42 64.9103 189.848 64.3102 190.208 63.8058C191.303 62.28 192.733 60.4604 195.255 60.4924C197.949 60.6201 199.36 62.8481 200.295 64.3229C201.965 66.9532 202.721 68.8494 203.223 70.1071C203.405 70.5668 203.612 71.0839 203.717 71.2435C204.586 72.5204 211.644 71.3265 214.303 70.8923C220.275 69.8963 225.443 69.0345 227.572 72.8012C229.098 75.4954 227.965 79.0578 224.102 83.6737C222.899 85.1102 221.619 86.2019 220.483 87.0574C221.424 87.6193 222.267 88.4811 222.609 89.8346C223.413 93.0395 220.658 96.2508 214.424 99.3919C212.876 100.177 210.791 101.224 207.87 101.729C206.495 101.965 205.256 102.022 204.196 102.054C204.174 102.667 204.03 103.331 203.657 104.014C202.562 106.025 200.283 106.983 196.848 106.753C193.068 106.555 189.956 105.834 187.211 105.202C184.814 104.653 182.748 104.187 181.127 104.295C178.12 104.538 175.802 106.945 173.082 110.067L166.293 118.002Z" fill="#F1E9DA"/>
<path d="M179.821 374.651L177.05 372.914L173.82 373.285C173.769 372.984 173.593 372.295 173.328 371.216C171.882 365.304 167.474 347.313 163.796 318.98C161.23 299.201 159.777 278.867 159.477 258.533C159.177 238.167 160.141 222.749 160.914 210.357C161.498 201.011 162.207 192.111 162.903 183.441C164.754 160.279 166.5 138.4 165.201 114.178C164.914 108.77 164.31 97.5147 157.734 85.5378C153.92 78.5916 148.666 72.4245 142.115 67.2149L146.188 62.0947C153.419 67.8533 159.231 74.6846 163.468 82.3968C170.758 95.6761 171.416 107.94 171.732 113.833C173.054 138.483 171.288 160.573 169.418 183.958C168.728 192.596 168.02 201.458 167.439 210.766C166.672 223.043 165.718 238.327 166.015 258.431C166.309 278.522 167.745 298.607 170.276 318.137C173.909 346.113 178.254 363.836 179.68 369.658C180.44 372.767 180.6 373.419 179.821 374.651Z" fill="#F1E9DA"/>
<path d="M130.127 77.6024C129.859 77.6024 129.587 77.596 129.313 77.5768C123.746 77.2767 118.591 73.9441 113.987 67.6747C111.83 64.7252 110.725 61.3607 108.522 54.6507C108.181 53.6165 106.521 48.3686 105.512 41.148C104.851 36.4299 104.934 34.4572 105.87 32.7143C106.907 30.7735 108.586 29.42 110.476 28.5071C110.393 27.8814 110.46 27.2366 110.731 26.579C111.846 23.8529 114.808 24.2105 116.41 24.3828C117.221 24.485 118.233 24.619 119.325 24.5616C121.042 24.4786 121.965 23.9678 123.363 23.2017C124.7 22.4675 126.363 21.5545 128.831 21.0502C133.696 20.0351 137.772 21.4141 139.116 21.8673C146.187 24.2231 149.672 29.72 153.707 36.0851C154.512 37.362 157.273 42.0097 159.096 48.3813C160.411 52.978 160.226 55.021 159.83 56.5404C159.025 59.6623 157.126 61.4499 152.303 65.3955C147.266 69.5261 144.737 71.5946 142.567 72.8523C137.514 75.77 134.341 77.6024 130.127 77.6024Z" fill="#F1E9DA"/>
<path d="M358.62 144.156C358.667 144.164 358.737 144.176 358.822 144.19C360.486 144.466 370.546 146.018 380.688 142.154C384.985 140.517 383.52 140.109 393.089 134.419C404.308 127.748 407.187 127.794 408.023 124.683C409.691 118.472 400.783 108.707 394.887 109.35C393.335 109.519 391.672 110.444 389.087 109.817C388.518 109.679 386.032 109.076 384.819 107.017C383.738 105.181 384.654 103.856 384.219 102.35C383.077 98.3968 373.56 96.4239 365.216 97.8178C360.418 98.6196 356.685 100.808 349.416 105.153C336.763 112.716 330.437 116.497 329.015 122.29C327.667 127.781 330.902 130.147 328.55 136.025C326.359 141.498 322.88 141.132 321.683 145.56C319.757 152.684 326.907 160.503 329.885 163.761C333.151 167.332 336.274 169.292 340.42 171.894C345.625 175.16 348.227 176.793 351.355 176.627C357.027 176.325 373.882 177.351 374.102 172.657C374.184 170.898 394.626 172.338 384.56 153.4C383.326 151.077 359.14 153.558 358.821 152.224" fill="#2F2E41"/>
<path d="M338.705 152.962L338.64 154.027L336.583 188.017L384.53 193.056L371.127 149.019L338.705 152.962Z" fill="#FFB6B6"/>
<path d="M714 375.757C714 376.185 713.653 376.532 713.225 376.532H0V374.982H713.225C713.653 374.982 714 375.329 714 375.757Z" fill="#E6E6E6"/>
<path d="M476.136 326.659C483.827 334.942 494.336 337.687 499.606 332.791C504.877 327.896 502.913 317.214 495.218 308.93C492.189 305.578 488.402 303 484.173 301.413L451.141 266.73L435.195 282.578L469.452 315.086C470.724 319.422 473.016 323.391 476.136 326.659Z" fill="#FFB6B6"/>
<path d="M406.833 302.885C417.53 306.537 428.085 303.978 430.408 297.17C432.731 290.362 425.943 281.884 415.242 278.233C410.987 276.715 406.431 276.239 401.954 276.843L356.435 261.942L349.897 283.452L395.465 295.858C398.639 299.075 402.537 301.484 406.833 302.885Z" fill="#A0616A"/>
<path d="M255.787 172.568C255.787 172.568 227.57 206.514 243.894 220.559C260.218 234.604 333.116 286.598 333.116 286.598L361.535 291.023L368.804 263.552L304.632 216.002L255.787 172.568Z" fill="#2E3C2A"/>
<path d="M363.221 165.01C380.869 165.01 395.176 150.704 395.176 133.055C395.176 115.407 380.869 101.1 363.221 101.1C345.572 101.1 331.266 115.407 331.266 133.055C331.266 150.704 345.572 165.01 363.221 165.01Z" fill="#FFB6B6"/>
<path d="M352.928 135.123C352.975 135.131 353.045 135.143 353.13 135.157C354.794 135.432 364.855 136.985 374.997 133.121C379.294 131.484 377.828 131.076 387.398 125.386C398.617 118.714 401.496 118.761 402.332 115.65C404 109.438 395.092 99.6736 389.196 100.316C387.643 100.486 385.981 101.411 383.395 100.784C382.827 100.646 380.34 100.042 379.128 97.9838C378.046 96.1475 378.962 94.8228 378.527 93.3168C377.386 89.3636 367.869 87.3907 359.525 88.7846C354.726 89.5864 350.993 91.7752 343.724 96.12C331.072 103.682 324.746 107.464 323.324 113.257C321.976 118.748 325.211 121.114 322.858 126.992C320.668 132.464 317.189 132.099 315.992 136.526C314.065 143.651 321.215 151.47 324.194 154.727C327.46 158.299 330.583 160.259 334.729 162.861C339.933 166.127 342.535 167.76 345.664 167.593C351.336 167.292 356.978 162.152 357.197 157.458C357.28 155.699 356.546 155.171 354.73 149.124C353.973 146.605 353.448 144.525 353.129 143.19" fill="#2F2E41"/>
<path d="M556.547 422.325L589.754 463.834L607.281 438.006L581.453 414.023L556.547 422.325Z" fill="#FFB6B6"/>
<path d="M420.027 321.78C420.027 321.78 522.119 333.771 530.57 342.073C539.021 350.375 589.755 420.48 589.755 420.48L568.539 437.084L513.835 378.927L397.225 378.017L420.027 321.78Z" fill="#2F2E41"/>
<path d="M475.373 321.779L508.581 363.289L526.107 337.461L500.279 313.478L475.373 321.779Z" fill="#FFB6B6"/>
<path d="M503.968 351.297C503.968 351.297 496.589 349.453 496.589 355.91C496.589 362.367 498.434 381.738 498.434 381.738C498.434 381.738 583.298 366.979 583.298 357.754C583.298 348.53 560.237 350.375 560.237 350.375L527.029 334.694L503.968 351.297Z" fill="#2F2E41"/>
<path d="M330.551 533.939L346.232 592.052L371.138 587.44L365.603 527.482L330.551 533.939Z" fill="#A0616A"/>
<path d="M349.922 588.363L340.698 590.208L333.318 615.113C333.318 615.113 345.31 619.725 345.31 628.95C345.31 638.174 349.922 644.631 368.371 643.709C386.819 642.786 388.664 643.709 388.664 636.329C388.664 628.95 374.828 590.208 374.828 590.208C374.828 590.208 375.75 574.526 364.681 575.449C353.612 576.371 349.922 588.363 349.922 588.363Z" fill="#2F2E41"/>
<path d="M246.226 533.035L247.296 593.217L272.575 594.804L281.796 535.301L246.226 533.035Z" fill="#A0616A"/>
<path d="M251.773 590.536L242.377 590.081L229.159 612.443C229.159 612.443 239.668 619.834 237.424 628.781C235.179 637.728 238.082 645.114 256.2 648.708C274.319 652.302 275.884 653.646 277.68 646.488C279.475 639.33 275.481 598.386 275.481 598.386C275.481 598.386 280.191 583.4 269.23 581.601C258.27 579.803 251.773 590.536 251.773 590.536Z" fill="#2F2E41"/>
<path d="M256.756 173.268L206.945 169.578L195.876 183.415C195.876 183.415 190.341 276.58 194.031 285.805C197.721 295.029 194.953 347.608 194.953 347.608L320.524 338.845L292.731 271.968L293.654 233.226L268.748 186.182L256.756 173.268Z" fill="#2E3C2A"/>
<path d="M200.488 328.237C200.488 328.237 180.194 357.754 187.574 373.436C194.953 389.117 245.009 480.168 245.009 480.168L238.552 565.032L282.828 561.343L290.208 470.022L259.523 395.574L265.058 387.272L311.18 443.541L327.783 541.319L372.06 535.784L348.077 392.807L320.048 337.699L200.488 328.237Z" fill="#2F2E41"/>
<path d="M375.75 170.501L338.853 166.811L308.412 196.329C308.412 196.329 293.654 238.761 296.421 261.821C299.188 284.882 323.171 342.073 323.171 342.073L360.991 314.4L404.345 316.245V229.888L382.207 181.57L375.75 170.501Z" fill="#BB4430"/>
<path d="M368.589 181.56C368.589 181.56 389.807 184.314 398.986 200.103C408.166 215.891 474.338 290.182 474.338 290.182L461.801 301.653L396.6 259.586L371.565 216.527L368.589 181.56Z" fill="#BB4430"/>
<path d="M319.942 332.387C319.942 332.387 316.713 370.668 337.007 376.203C357.301 381.738 409.879 377.125 409.879 377.125L443.087 291.339L475.372 330.081L506.735 315.322C506.735 315.322 473.527 222.157 455.078 222.157C436.63 222.157 407.112 247.985 407.112 247.985L359.145 312.555L319.942 332.387Z" fill="#2F2E41"/>
<path d="M585.142 451.843C585.142 451.843 577.763 449.998 577.763 456.455C577.763 462.912 579.608 482.283 579.608 482.283C579.608 482.283 664.471 467.524 664.471 458.3C664.471 449.075 641.411 450.92 641.411 450.92L608.203 435.239L585.142 451.843Z" fill="#2F2E41"/>
<path d="M196.153 116.778C205.598 116.778 213.255 109.122 213.255 99.6767C213.255 90.2318 205.598 82.5752 196.153 82.5752C186.708 82.5752 179.052 90.2318 179.052 99.6767C179.052 109.122 186.708 116.778 196.153 116.778Z" fill="#2F2E41"/>
<path d="M235.646 163.077C256.215 163.077 272.89 146.402 272.89 125.833C272.89 105.265 256.215 88.5903 235.646 88.5903C215.078 88.5903 198.403 105.265 198.403 125.833C198.403 146.402 215.078 163.077 235.646 163.077Z" fill="#A0616A"/>
<path d="M223.838 166.664C219.879 168.761 208.741 161.062 204.756 150.747C202.193 144.111 195.959 145.215 191.982 136.939C189.665 132.117 196.585 127.399 195.444 123.23C193.375 115.675 195.968 108.917 196.299 108.089C199.151 100.941 203.354 101.107 206.744 92.7876C208.785 87.7788 207.476 87.1922 209.191 84.6298C214.142 77.2348 228.507 76.9535 238.638 80.4506C242.144 81.6608 250.589 75.1761 257.444 79.8739C265.521 85.4086 270.894 101.363 269.658 104.286C268.907 106.062 264.725 104.253 256.029 105.62C247.977 106.885 258.604 112.901 249.543 114.951C238.828 117.376 235.6 115.163 232.631 118.553C229.492 122.136 228.911 129.389 231.776 133.695C233.197 135.831 235.03 136.585 234.8 138.072C234.381 140.786 231.97 139.311 231.179 142.191C230.259 145.54 237.891 149.932 237.228 150.945C237.094 151.149 236.523 151.37 229.07 148.498C226.094 147.351 224.947 146.361 224.613 146.727C224.073 147.32 221.397 153.268 224.437 155.797C229.168 159.734 225.889 161.298 228.046 164.38C230.271 167.561 226.353 165.331 223.838 166.664Z" fill="#2F2E41"/>
<path d="M232.56 381.849C238.503 391.463 248.282 396.189 254.4 392.406C260.518 388.622 260.658 377.763 254.711 368.146C252.388 364.272 249.171 361.01 245.329 358.634L219.631 318.216L200.921 330.679L228.241 369.201C228.65 373.701 230.131 378.038 232.56 381.849Z" fill="#A0616A"/>
<path d="M198.644 185.26C198.644 185.26 155.29 193.561 158.98 214.777C162.669 235.993 185.959 322.451 185.959 322.451L205.101 343.918L228.162 327.314L208.791 249.83L198.644 185.26Z" fill="#2E3C2A"/>
<path d="M405.68 385.281C411.599 394.911 421.365 399.662 427.493 395.894C433.621 392.126 433.788 381.267 427.866 371.635C425.553 367.755 422.344 364.485 418.509 362.099L392.914 321.615L374.172 334.031L401.394 372.623C401.791 377.124 403.261 381.465 405.68 385.281Z" fill="#FFB6B6"/>
<path d="M348.087 190.796L311.578 199.951C311.578 199.951 324.362 245.505 327.357 261.836C330.353 278.167 393.399 368.143 393.399 368.143L412.469 345.332L356.628 242.422L348.087 190.796Z" fill="#BB4430"/>
</g>
<defs>
<clipPath id="clip0_338_210">
<rect width="714" height="651.637" fill="white"/>
</clipPath>
</defs>
</svg>
