<svg width="268" height="72" viewBox="0 0 268 72" fill="none" xmlns="http://www.w3.org/2000/svg">
<g clip-path="url(#clip0_163_96)">
<path d="M76.8655 0H89.4564C96.456 0 100.961 3.69985 100.92 9.61337C100.92 15.4853 96.3728 19.2683 89.4148 19.2683H83.4597V28.6427H76.8655V0ZM88.8952 14.2018C92.1949 14.2018 94.2423 12.3935 94.2423 9.61337C94.2423 6.83329 92.1533 5.06651 88.8952 5.06651H83.4649V14.1966H88.8952V14.2018Z" fill="#F1E9DA"/>
<path d="M103.05 0H116.727C123.446 0 127.868 3.74142 127.868 9.41071C127.868 14.1187 124.532 17.4963 119.944 18.0575L119.621 18.0991L128.793 28.6375H121.149L112.944 18.5824H109.727V28.6375H103.05V0ZM115.844 13.8796C119.06 13.8796 121.232 12.1908 121.232 9.45228C121.232 6.71377 119.019 5.06651 115.844 5.06651H109.727V13.8744H115.844V13.8796Z" fill="#F1E9DA"/>
<path d="M130.524 0H137.201V28.6375H130.524V0Z" fill="#F1E9DA"/>
<path d="M141.14 0H150.39L157.914 20.3544H158.314L165.797 0H175.13V28.6375H168.613V8.92744H168.213L160.85 28.6375H155.42L148.056 8.92744H147.656V28.6375H141.14V0Z" fill="#F1E9DA"/>
<path d="M179.068 0H200.187V5.38868H185.585V11.7023H199.101V16.4103H185.585V23.2488H200.587V28.6375H179.068V0Z" fill="#F1E9DA"/>
<path d="M203.123 0H209.8V28.6375H203.123V0Z" fill="#F1E9DA"/>
<path d="M213.739 0H227.416C234.135 0 238.557 3.74142 238.557 9.41071C238.557 14.1187 235.221 17.4963 230.633 18.0575L230.31 18.0991L239.482 28.6375H231.838L223.633 18.5824H220.416V28.6375H213.739V0ZM226.533 13.8796C229.749 13.8796 231.921 12.1908 231.921 9.45228C231.921 6.71377 229.708 5.06651 226.533 5.06651H220.416V13.8744H226.533V13.8796Z" fill="#F1E9DA"/>
<path d="M248.732 0H258.387L268 28.6375H261.245L259.473 23.5294H247.568L245.796 28.6375H239.04L248.732 0ZM258.023 18.624L253.757 5.71086H253.356L249.012 18.624H258.023Z" fill="#F1E9DA"/>
<path d="M75.5403 63.973V63.6197L78.9439 62.8818V37.622L75.5403 36.8841V36.5308H86.0682V36.8841L82.6646 37.622V62.8818L86.0682 63.6197V63.973H75.5403Z" fill="#F1E9DA"/>
<path d="M115.849 52.6086L113.266 53.4816V57.7218C113.266 59.1612 113.349 60.637 113.62 62.1804C110.969 63.838 107.031 64.5083 103.83 64.5083C94.6942 64.5083 89.3315 59.0417 89.3315 49.657C89.3315 41.3947 94.1434 35.9956 103.746 35.9956C107.332 35.9956 110.05 36.4165 112.679 37.435C112.762 39.6331 112.913 41.8624 113.199 43.9877L112.663 44.1228C110.834 38.7757 107.399 36.7803 103.341 36.7803C97.3912 36.7803 93.7849 41.0881 93.7849 49.6206C93.7849 59.3587 98.6279 63.7185 103.991 63.7185C106.121 63.7185 107.914 63.282 109.608 62.092V53.4764L105.939 52.6034V52.2344H115.844V52.6034L115.849 52.6086Z" fill="#F1E9DA"/>
<path d="M141.644 63.9938L141.561 64.3108C137.689 64.5446 135.507 63.2715 133.496 60.1849C131.968 57.7217 130.378 54.4532 128.902 50.8833C127.847 51.0651 126.725 51.2002 125.514 51.2834V62.8974L129.37 63.6197V63.973H118.489V63.6197L121.825 62.8974V37.622L118.489 36.8841V36.5308H128.798C133.828 36.5308 138.25 37.5545 138.25 42.4962C138.25 46.3156 136.12 48.6488 132.436 49.9739C133.776 53.2424 135.538 56.5785 136.977 58.7714C138.77 61.5203 140.08 62.8298 141.639 63.9834L141.644 63.9938ZM125.519 49.7816C127.312 49.9843 128.954 49.9479 130.664 49.6465C132.992 48.5397 134.384 46.5287 134.384 43.2445C134.384 39.1705 132.321 37.3258 128.637 37.3258C127.447 37.3258 126.491 37.409 125.519 37.6116V49.7816Z" fill="#F1E9DA"/>
<path d="M163.464 56.3135H163.9L163.698 63.973H143.769V63.6197L147.157 62.8818V37.622L143.769 36.8841V36.5308H162.996L163.147 43.5563L162.71 43.5875L161.099 38.3755C159.223 37.6532 156.807 37.3362 150.873 37.3206V49.1736C154.224 49.1581 155.97 49.0905 157.846 48.706L159.036 45.1204H159.473V54.1882H159.036L157.846 50.4312C155.97 50.0622 154.224 49.9947 150.873 49.9427V63.1832C157.14 63.1676 159.941 62.7467 161.567 62.0088L163.464 56.3083V56.3135Z" fill="#F1E9DA"/>
<path d="M167.579 70.7959C170.666 67.4754 171.399 64.3576 171.399 59.8835V37.622L167.579 36.8841V36.5308H178.523V36.8841L175.104 37.622V60.1849C175.104 64.8616 173.093 68.7485 167.777 71.0817L167.574 70.7959H167.579Z" fill="#F1E9DA"/>
<path d="M203.736 62.8717L206.636 63.6096V63.9786H193.795V63.6096L199.527 62.8717L196.258 54.0067H186.136C185.081 56.9582 184.026 59.9046 182.987 62.8562L188.672 63.6096V63.9786H178.58V63.6096L181.729 62.8562C182.888 59.7071 184.01 56.6049 185.148 53.487L191.317 36.4064C192.236 36.2037 193.177 36.2037 194.05 36.4064L203.736 62.8717ZM186.453 53.1181H195.941L192.657 44.201C191.971 42.2731 191.821 41.8522 191.15 39.9452C190.631 41.4885 190.163 42.8603 189.659 44.201L186.458 53.1181H186.453Z" fill="#F1E9DA"/>
<path d="M208.226 46.6431V51.8187" stroke="#F1E9DA" stroke-width="0.389731" stroke-miterlimit="10"/>
<path d="M215.44 47.7432V43.3971H216.908C217.249 43.3971 217.528 43.4586 217.744 43.5817C217.962 43.7034 218.123 43.8682 218.228 44.0761C218.333 44.2841 218.385 44.5161 218.385 44.7722C218.385 45.0283 218.333 45.261 218.228 45.4704C218.125 45.6798 217.965 45.8467 217.748 45.9712C217.532 46.0943 217.255 46.1558 216.917 46.1558H215.864V45.689H216.9C217.133 45.689 217.321 45.6486 217.462 45.568C217.603 45.4874 217.706 45.3784 217.77 45.2412C217.835 45.1025 217.867 44.9462 217.867 44.7722C217.867 44.5982 217.835 44.4426 217.77 44.3053C217.706 44.1681 217.603 44.0606 217.46 43.9828C217.317 43.9035 217.127 43.8639 216.891 43.8639H215.966V47.7432H215.44ZM219.165 47.7432V44.4836H219.649V44.9759H219.683C219.742 44.8146 219.85 44.6838 220.005 44.5833C220.161 44.4829 220.336 44.4327 220.532 44.4327C220.568 44.4327 220.614 44.4334 220.67 44.4348C220.725 44.4362 220.766 44.4383 220.795 44.4412V44.9505C220.778 44.9462 220.739 44.9398 220.678 44.9314C220.619 44.9215 220.556 44.9165 220.489 44.9165C220.331 44.9165 220.189 44.9498 220.065 45.0162C219.942 45.0813 219.844 45.1719 219.772 45.2879C219.701 45.4025 219.666 45.5333 219.666 45.6805V47.7432H219.165ZM222.656 47.8111C222.342 47.8111 222.071 47.7417 221.843 47.6031C221.617 47.463 221.442 47.2678 221.319 47.0174C221.197 46.7656 221.136 46.4727 221.136 46.1388C221.136 45.805 221.197 45.5107 221.319 45.256C221.442 45 221.613 44.8005 221.832 44.6576C222.053 44.5133 222.311 44.4412 222.605 44.4412C222.775 44.4412 222.942 44.4694 223.108 44.526C223.273 44.5826 223.424 44.6746 223.56 44.8019C223.696 44.9278 223.804 45.0948 223.885 45.3027C223.965 45.5107 224.006 45.7668 224.006 46.0709V46.2831H221.493V45.8502H223.496C223.496 45.6663 223.459 45.5022 223.386 45.3579C223.314 45.2136 223.21 45.0997 223.076 45.0162C222.943 44.9328 222.786 44.891 222.605 44.891C222.405 44.891 222.233 44.9406 222.087 45.0396C221.943 45.1372 221.832 45.2645 221.754 45.4216C221.676 45.5786 221.637 45.747 221.637 45.9266V46.2152C221.637 46.4614 221.68 46.6701 221.765 46.8413C221.851 47.011 221.97 47.1405 222.123 47.2296C222.276 47.3173 222.454 47.3612 222.656 47.3612C222.787 47.3612 222.906 47.3428 223.012 47.306C223.12 47.2678 223.213 47.2112 223.29 47.1362C223.368 47.0598 223.428 46.9651 223.471 46.8519L223.955 46.9877C223.904 47.1518 223.818 47.2961 223.698 47.4206C223.578 47.5437 223.429 47.6399 223.252 47.7092C223.075 47.7771 222.877 47.8111 222.656 47.8111ZM227.076 45.2136L226.626 45.3409C226.598 45.2659 226.556 45.1931 226.501 45.1224C226.447 45.0502 226.374 44.9908 226.28 44.9441C226.187 44.8974 226.068 44.8741 225.922 44.8741C225.722 44.8741 225.556 44.92 225.423 45.012C225.292 45.1025 225.226 45.2178 225.226 45.3579C225.226 45.4824 225.271 45.5807 225.362 45.6529C225.452 45.725 225.594 45.7852 225.786 45.8333L226.27 45.9521C226.561 46.0228 226.778 46.1311 226.921 46.2768C227.064 46.4211 227.136 46.6071 227.136 46.8349C227.136 47.0216 227.082 47.1886 226.974 47.3357C226.868 47.4829 226.72 47.5989 226.529 47.6837C226.338 47.7686 226.116 47.8111 225.862 47.8111C225.53 47.8111 225.255 47.7389 225.037 47.5946C224.819 47.4503 224.681 47.2395 224.623 46.9622L225.098 46.8434C225.144 47.0188 225.229 47.1504 225.355 47.2381C225.483 47.3258 225.649 47.3697 225.854 47.3697C226.087 47.3697 226.273 47.3202 226.41 47.2211C226.549 47.1207 226.618 47.0004 226.618 46.8604C226.618 46.7472 226.578 46.6524 226.499 46.576C226.42 46.4982 226.298 46.4402 226.134 46.402L225.591 46.2747C225.292 46.2039 225.073 46.0943 224.933 45.9457C224.794 45.7958 224.725 45.6083 224.725 45.3834C224.725 45.1995 224.777 45.0368 224.88 44.8953C224.985 44.7538 225.127 44.6428 225.306 44.5621C225.487 44.4815 225.693 44.4412 225.922 44.4412C226.244 44.4412 226.498 44.5119 226.682 44.6534C226.867 44.7948 226.998 44.9816 227.076 45.2136ZM227.957 47.7432V43.3971H228.458V45.0014H228.501C228.537 44.9448 228.588 44.8726 228.654 44.7849C228.72 44.6958 228.815 44.6166 228.938 44.5473C229.062 44.4765 229.231 44.4412 229.443 44.4412C229.717 44.4412 229.959 44.5098 230.169 44.647C230.378 44.7842 230.541 44.9788 230.659 45.2306C230.776 45.4824 230.835 45.7795 230.835 46.1219C230.835 46.4671 230.776 46.7663 230.659 47.0195C230.541 47.2713 230.379 47.4666 230.171 47.6052C229.963 47.7425 229.723 47.8111 229.451 47.8111C229.242 47.8111 229.074 47.7764 228.948 47.7071C228.823 47.6364 228.726 47.5564 228.658 47.4673C228.59 47.3767 228.537 47.3018 228.501 47.2423H228.441V47.7432H227.957ZM228.45 46.1134C228.45 46.3595 228.486 46.5767 228.558 46.7649C228.63 46.9516 228.736 47.098 228.874 47.2041C229.013 47.3088 229.183 47.3612 229.384 47.3612C229.593 47.3612 229.768 47.306 229.908 47.1957C230.049 47.0839 230.155 46.9339 230.226 46.7458C230.298 46.5562 230.334 46.3454 230.334 46.1134C230.334 45.8842 230.299 45.6776 230.228 45.4937C230.159 45.3084 230.053 45.162 229.912 45.0544C229.772 44.9455 229.596 44.891 229.384 44.891C229.18 44.891 229.009 44.9427 228.87 45.046C228.731 45.1478 228.627 45.2907 228.556 45.4746C228.485 45.6571 228.45 45.87 228.45 46.1134ZM231.601 47.7432V44.4836H232.102V47.7432H231.601ZM231.856 43.9403C231.758 43.9403 231.674 43.9071 231.603 43.8406C231.534 43.7741 231.499 43.6942 231.499 43.6008C231.499 43.5074 231.534 43.4275 231.603 43.361C231.674 43.2945 231.758 43.2613 231.856 43.2613C231.953 43.2613 232.037 43.2945 232.106 43.361C232.177 43.4275 232.212 43.5074 232.212 43.6008C232.212 43.6942 232.177 43.7741 232.106 43.8406C232.037 43.9071 231.953 43.9403 231.856 43.9403ZM234.437 44.4836V44.908H232.748V44.4836H234.437ZM233.24 43.7027H233.741V46.8094C233.741 46.9509 233.761 47.057 233.802 47.1278C233.845 47.1971 233.898 47.2438 233.964 47.2678C234.03 47.2904 234.1 47.3018 234.174 47.3018C234.229 47.3018 234.274 47.2989 234.309 47.2933C234.345 47.2862 234.373 47.2805 234.394 47.2763L234.496 47.7262C234.462 47.7389 234.415 47.7517 234.354 47.7644C234.293 47.7785 234.216 47.7856 234.123 47.7856C233.981 47.7856 233.843 47.7552 233.707 47.6944C233.572 47.6335 233.461 47.5409 233.371 47.4164C233.284 47.2919 233.24 47.1348 233.24 46.9452V43.7027ZM236.522 47.8111C236.208 47.8111 235.937 47.7417 235.709 47.6031C235.483 47.463 235.308 47.2678 235.185 47.0174C235.063 46.7656 235.002 46.4727 235.002 46.1388C235.002 45.805 235.063 45.5107 235.185 45.256C235.308 45 235.479 44.8005 235.698 44.6576C235.919 44.5133 236.177 44.4412 236.471 44.4412C236.641 44.4412 236.808 44.4694 236.974 44.526C237.139 44.5826 237.29 44.6746 237.426 44.8019C237.562 44.9278 237.67 45.0948 237.75 45.3027C237.831 45.5107 237.871 45.7668 237.871 46.0709V46.2831H235.359V45.8502H237.362C237.362 45.6663 237.325 45.5022 237.252 45.3579C237.18 45.2136 237.076 45.0997 236.942 45.0162C236.809 44.9328 236.652 44.891 236.471 44.891C236.271 44.891 236.099 44.9406 235.953 45.0396C235.809 45.1372 235.698 45.2645 235.62 45.4216C235.542 45.5786 235.503 45.747 235.503 45.9266V46.2152C235.503 46.4614 235.546 46.6701 235.63 46.8413C235.717 47.011 235.836 47.1405 235.989 47.2296C236.142 47.3173 236.319 47.3612 236.522 47.3612C236.653 47.3612 236.772 47.3428 236.878 47.306C236.986 47.2678 237.078 47.2112 237.156 47.1362C237.234 47.0598 237.294 46.9651 237.337 46.8519L237.821 46.9877C237.77 47.1518 237.684 47.2961 237.564 47.4206C237.443 47.5437 237.295 47.6399 237.118 47.7092C236.941 47.7771 236.742 47.8111 236.522 47.8111ZM238.633 47.7432V44.4836H239.117V44.9759H239.151C239.211 44.8146 239.318 44.6838 239.474 44.5833C239.629 44.4829 239.805 44.4327 240 44.4327C240.037 44.4327 240.083 44.4334 240.138 44.4348C240.193 44.4362 240.235 44.4383 240.263 44.4412V44.9505C240.246 44.9462 240.207 44.9398 240.146 44.9314C240.087 44.9215 240.024 44.9165 239.957 44.9165C239.799 44.9165 239.658 44.9498 239.533 45.0162C239.41 45.0813 239.312 45.1719 239.24 45.2879C239.169 45.4025 239.134 45.5333 239.134 45.6805V47.7432H238.633ZM240.857 47.7432V44.4836H241.358V47.7432H240.857ZM241.111 43.9403C241.014 43.9403 240.93 43.9071 240.859 43.8406C240.79 43.7741 240.755 43.6942 240.755 43.6008C240.755 43.5074 240.79 43.4275 240.859 43.361C240.93 43.2945 241.014 43.2613 241.111 43.2613C241.209 43.2613 241.292 43.2945 241.362 43.361C241.433 43.4275 241.468 43.5074 241.468 43.6008C241.468 43.6942 241.433 43.7741 241.362 43.8406C241.292 43.9071 241.209 43.9403 241.111 43.9403ZM243.234 47.8196C243.027 47.8196 242.84 47.7807 242.672 47.7028C242.503 47.6236 242.37 47.5097 242.271 47.3612C242.172 47.2112 242.122 47.0301 242.122 46.8179C242.122 46.6312 242.159 46.4798 242.232 46.3638C242.306 46.2464 242.404 46.1544 242.527 46.0879C242.65 46.0214 242.786 45.9719 242.935 45.9394C243.085 45.9054 243.235 45.8785 243.387 45.8587C243.585 45.8333 243.745 45.8142 243.869 45.8014C243.993 45.7873 244.084 45.7639 244.14 45.7314C244.198 45.6989 244.227 45.6423 244.227 45.5616V45.5447C244.227 45.3353 244.17 45.1726 244.055 45.0566C243.942 44.9406 243.77 44.8826 243.54 44.8826C243.301 44.8826 243.113 44.9349 242.977 45.0396C242.841 45.1443 242.746 45.256 242.691 45.3749L242.215 45.2051C242.3 45.007 242.413 44.8528 242.555 44.7425C242.698 44.6307 242.853 44.5529 243.022 44.5091C243.192 44.4638 243.359 44.4412 243.523 44.4412C243.627 44.4412 243.748 44.4539 243.883 44.4793C244.021 44.5034 244.153 44.5536 244.28 44.63C244.409 44.7064 244.516 44.8217 244.601 44.9759C244.686 45.1301 244.728 45.3367 244.728 45.5956V47.7432H244.227V47.3018H244.202C244.168 47.3725 244.111 47.4482 244.032 47.5288C243.953 47.6095 243.847 47.6781 243.716 47.7347C243.584 47.7913 243.424 47.8196 243.234 47.8196ZM243.31 47.3697C243.508 47.3697 243.675 47.3308 243.811 47.253C243.948 47.1751 244.052 47.0747 244.121 46.9516C244.192 46.8285 244.227 46.6991 244.227 46.5633V46.1049C244.206 46.1304 244.159 46.1537 244.087 46.1749C244.016 46.1947 243.934 46.2124 243.841 46.228C243.749 46.2421 243.659 46.2549 243.571 46.2662C243.485 46.2761 243.415 46.2846 243.361 46.2916C243.231 46.3086 243.11 46.3362 242.996 46.3744C242.885 46.4112 242.794 46.4671 242.725 46.542C242.657 46.6156 242.623 46.7161 242.623 46.8434C242.623 47.0174 242.687 47.149 242.816 47.2381C242.946 47.3258 243.111 47.3697 243.31 47.3697ZM246.143 45.7823V47.7432H245.642V44.4836H246.126V44.9929H246.168C246.245 44.8274 246.361 44.6944 246.516 44.5939C246.672 44.4921 246.873 44.4412 247.119 44.4412C247.34 44.4412 247.533 44.4864 247.698 44.577C247.864 44.6661 247.993 44.8019 248.085 44.9844C248.177 45.1655 248.223 45.3947 248.223 45.672V47.7432H247.722V45.7059C247.722 45.4499 247.655 45.2504 247.522 45.1075C247.389 44.9632 247.207 44.891 246.975 44.891C246.815 44.891 246.672 44.9257 246.546 44.995C246.422 45.0643 246.323 45.1655 246.251 45.2985C246.179 45.4315 246.143 45.5928 246.143 45.7823ZM250.097 47.8196C249.89 47.8196 249.703 47.7807 249.535 47.7028C249.366 47.6236 249.233 47.5097 249.134 47.3612C249.034 47.2112 248.985 47.0301 248.985 46.8179C248.985 46.6312 249.022 46.4798 249.095 46.3638C249.169 46.2464 249.267 46.1544 249.39 46.0879C249.513 46.0214 249.649 45.9719 249.798 45.9394C249.948 45.9054 250.098 45.8785 250.25 45.8587C250.448 45.8333 250.608 45.8142 250.731 45.8014C250.856 45.7873 250.947 45.7639 251.003 45.7314C251.061 45.6989 251.09 45.6423 251.09 45.5616V45.5447C251.09 45.3353 251.033 45.1726 250.918 45.0566C250.805 44.9406 250.633 44.8826 250.403 44.8826C250.163 44.8826 249.976 44.9349 249.84 45.0396C249.704 45.1443 249.609 45.256 249.554 45.3749L249.078 45.2051C249.163 45.007 249.276 44.8528 249.418 44.7425C249.561 44.6307 249.716 44.5529 249.885 44.5091C250.055 44.4638 250.221 44.4412 250.386 44.4412C250.49 44.4412 250.611 44.4539 250.746 44.4793C250.884 44.5034 251.016 44.5536 251.143 44.63C251.272 44.7064 251.379 44.8217 251.464 44.9759C251.548 45.1301 251.591 45.3367 251.591 45.5956V47.7432H251.09V47.3018H251.065C251.031 47.3725 250.974 47.4482 250.895 47.5288C250.816 47.6095 250.71 47.6781 250.579 47.7347C250.447 47.7913 250.287 47.8196 250.097 47.8196ZM250.173 47.3697C250.371 47.3697 250.538 47.3308 250.674 47.253C250.811 47.1751 250.915 47.0747 250.984 46.9516C251.055 46.8285 251.09 46.6991 251.09 46.5633V46.1049C251.069 46.1304 251.022 46.1537 250.95 46.1749C250.879 46.1947 250.797 46.2124 250.704 46.228C250.612 46.2421 250.522 46.2549 250.434 46.2662C250.348 46.2761 250.278 46.2846 250.224 46.2916C250.094 46.3086 249.972 46.3362 249.859 46.3744C249.748 46.4112 249.657 46.4671 249.588 46.542C249.52 46.6156 249.486 46.7161 249.486 46.8434C249.486 47.0174 249.55 47.149 249.679 47.2381C249.809 47.3258 249.974 47.3697 250.173 47.3697ZM255.417 47.8111C255.145 47.8111 254.905 47.7425 254.697 47.6052C254.489 47.4666 254.327 47.2713 254.209 47.0195C254.092 46.7663 254.033 46.4671 254.033 46.1219C254.033 45.7795 254.092 45.4824 254.209 45.2306C254.327 44.9788 254.49 44.7842 254.699 44.647C254.909 44.5098 255.151 44.4412 255.425 44.4412C255.637 44.4412 255.805 44.4765 255.928 44.5473C256.052 44.6166 256.147 44.6958 256.212 44.7849C256.279 44.8726 256.33 44.9448 256.367 45.0014H256.41V43.3971H256.911V47.7432H256.427V47.2423H256.367C256.33 47.3018 256.278 47.3767 256.21 47.4673C256.142 47.5564 256.045 47.6364 255.92 47.7071C255.794 47.7764 255.626 47.8111 255.417 47.8111ZM255.484 47.3612C255.685 47.3612 255.855 47.3088 255.994 47.2041C256.132 47.098 256.238 46.9516 256.31 46.7649C256.382 46.5767 256.418 46.3595 256.418 46.1134C256.418 45.87 256.383 45.6571 256.312 45.4746C256.241 45.2907 256.137 45.1478 255.998 45.046C255.859 44.9427 255.688 44.891 255.484 44.891C255.272 44.891 255.095 44.9455 254.954 45.0544C254.814 45.162 254.708 45.3084 254.638 45.4937C254.568 45.6776 254.534 45.8842 254.534 46.1134C254.534 46.3454 254.569 46.5562 254.64 46.7458C254.712 46.9339 254.818 47.0839 254.958 47.1957C255.1 47.306 255.275 47.3612 255.484 47.3612ZM259.264 47.8111C258.95 47.8111 258.679 47.7417 258.451 47.6031C258.225 47.463 258.05 47.2678 257.927 47.0174C257.805 46.7656 257.745 46.4727 257.745 46.1388C257.745 45.805 257.805 45.5107 257.927 45.256C258.05 45 258.221 44.8005 258.441 44.6576C258.661 44.5133 258.919 44.4412 259.213 44.4412C259.383 44.4412 259.55 44.4694 259.716 44.526C259.882 44.5826 260.032 44.6746 260.168 44.8019C260.304 44.9278 260.412 45.0948 260.493 45.3027C260.573 45.5107 260.614 45.7668 260.614 46.0709V46.2831H258.101V45.8502H260.104C260.104 45.6663 260.068 45.5022 259.994 45.3579C259.922 45.2136 259.819 45.0997 259.684 45.0162C259.551 44.9328 259.394 44.891 259.213 44.891C259.014 44.891 258.841 44.9406 258.695 45.0396C258.551 45.1372 258.44 45.2645 258.362 45.4216C258.284 45.5786 258.245 45.747 258.245 45.9266V46.2152C258.245 46.4614 258.288 46.6701 258.373 46.8413C258.459 47.011 258.579 47.1405 258.731 47.2296C258.884 47.3173 259.062 47.3612 259.264 47.3612C259.396 47.3612 259.514 47.3428 259.62 47.306C259.728 47.2678 259.821 47.2112 259.898 47.1362C259.976 47.0598 260.036 46.9651 260.079 46.8519L260.563 46.9877C260.512 47.1518 260.426 47.2961 260.306 47.4206C260.186 47.5437 260.037 47.6399 259.86 47.7092C259.683 47.7771 259.485 47.8111 259.264 47.8111Z" fill="#F1E9DA"/>
<path d="M218.937 51.9261H218.411C218.379 51.7747 218.325 51.6418 218.247 51.5272C218.171 51.4126 218.077 51.3164 217.967 51.2386C217.858 51.1593 217.737 51.0999 217.604 51.0603C217.471 51.0207 217.333 51.0009 217.188 51.0009C216.925 51.0009 216.687 51.0674 216.473 51.2004C216.261 51.3333 216.092 51.5293 215.966 51.7882C215.841 52.0471 215.779 52.3647 215.779 52.741C215.779 53.1173 215.841 53.4349 215.966 53.6938C216.092 53.9527 216.261 54.1487 216.473 54.2817C216.687 54.4147 216.925 54.4812 217.188 54.4812C217.333 54.4812 217.471 54.4613 217.604 54.4217C217.737 54.3821 217.858 54.3234 217.967 54.2456C218.077 54.1664 218.171 54.0695 218.247 53.9549C218.325 53.8389 218.379 53.7059 218.411 53.5559H218.937C218.897 53.778 218.825 53.9768 218.72 54.1522C218.616 54.3277 218.486 54.4769 218.33 54.6C218.174 54.7217 218 54.8143 217.806 54.878C217.613 54.9417 217.408 54.9735 217.188 54.9735C216.818 54.9735 216.488 54.8829 216.199 54.7019C215.911 54.5208 215.684 54.2633 215.518 53.9294C215.353 53.5955 215.27 53.1994 215.27 52.741C215.27 52.2826 215.353 51.8865 215.518 51.5526C215.684 51.2188 215.911 50.9613 216.199 50.7802C216.488 50.5991 216.818 50.5085 217.188 50.5085C217.408 50.5085 217.613 50.5404 217.806 50.604C218 50.6677 218.174 50.7611 218.33 50.8842C218.486 51.0058 218.616 51.1544 218.72 51.3298C218.825 51.5038 218.897 51.7026 218.937 51.9261ZM220.679 54.9905C220.472 54.9905 220.285 54.9516 220.116 54.8737C219.948 54.7945 219.814 54.6806 219.715 54.5321C219.616 54.3821 219.567 54.201 219.567 53.9888C219.567 53.8021 219.603 53.6507 219.677 53.5347C219.751 53.4173 219.849 53.3253 219.972 53.2588C220.095 53.1923 220.231 53.1428 220.379 53.1103C220.529 53.0763 220.68 53.0494 220.831 53.0296C221.029 53.0042 221.19 52.9851 221.313 52.9723C221.438 52.9582 221.528 52.9348 221.585 52.9023C221.643 52.8698 221.672 52.8132 221.672 52.7325V52.7155C221.672 52.5062 221.614 52.3435 221.5 52.2275C221.387 52.1115 221.215 52.0534 220.984 52.0534C220.745 52.0534 220.558 52.1058 220.422 52.2105C220.286 52.3152 220.191 52.4269 220.135 52.5458L219.66 52.376C219.745 52.1779 219.858 52.0237 220 51.9134C220.142 51.8016 220.298 51.7238 220.466 51.68C220.636 51.6347 220.803 51.612 220.967 51.612C221.072 51.612 221.192 51.6248 221.328 51.6502C221.465 51.6743 221.597 51.7245 221.725 51.8009C221.854 51.8773 221.96 51.9926 222.045 52.1468C222.13 52.301 222.173 52.5076 222.173 52.7665V54.9141H221.672V54.4727H221.646C221.612 54.5434 221.556 54.6191 221.477 54.6997C221.397 54.7804 221.292 54.849 221.16 54.9056C221.029 54.9622 220.868 54.9905 220.679 54.9905ZM220.755 54.5406C220.953 54.5406 221.12 54.5017 221.256 54.4239C221.393 54.346 221.496 54.2456 221.566 54.1225C221.636 53.9994 221.672 53.87 221.672 53.7342V53.2758C221.651 53.3013 221.604 53.3246 221.532 53.3458C221.461 53.3656 221.379 53.3833 221.286 53.3989C221.194 53.413 221.104 53.4258 221.016 53.4371C220.93 53.447 220.86 53.4555 220.806 53.4625C220.676 53.4795 220.554 53.5071 220.441 53.5453C220.329 53.5821 220.239 53.638 220.169 53.7129C220.101 53.7865 220.067 53.887 220.067 54.0143C220.067 54.1883 220.132 54.3199 220.261 54.409C220.391 54.4967 220.556 54.5406 220.755 54.5406ZM223.087 54.9141V51.6545H223.571V52.1638H223.613C223.681 51.9898 223.79 51.8547 223.942 51.7585C224.093 51.6609 224.275 51.612 224.487 51.612C224.702 51.612 224.881 51.6609 225.024 51.7585C225.168 51.8547 225.281 51.9898 225.362 52.1638H225.396C225.479 51.9954 225.604 51.8618 225.771 51.7627C225.938 51.6623 226.138 51.612 226.372 51.612C226.663 51.612 226.902 51.7033 227.087 51.8858C227.272 52.0669 227.365 52.3491 227.365 52.7325V54.9141H226.864V52.7325C226.864 52.492 226.798 52.3201 226.667 52.2169C226.535 52.1136 226.38 52.0619 226.202 52.0619C225.973 52.0619 225.795 52.1313 225.669 52.2699C225.543 52.4071 225.48 52.5811 225.48 52.7919V54.9141H224.971V52.6816C224.971 52.4963 224.911 52.347 224.791 52.2338C224.67 52.1192 224.516 52.0619 224.326 52.0619C224.196 52.0619 224.074 52.0966 223.961 52.1659C223.849 52.2352 223.759 52.3314 223.689 52.4545C223.621 52.5762 223.587 52.717 223.587 52.8768V54.9141H223.087ZM228.281 56.1364V51.6545H228.764V52.1723H228.824C228.861 52.1157 228.912 52.0435 228.977 51.9558C229.043 51.8667 229.138 51.7875 229.261 51.7182C229.385 51.6474 229.554 51.612 229.766 51.612C230.04 51.612 230.282 51.6807 230.492 51.8179C230.701 51.9551 230.865 52.1497 230.982 52.4015C231.099 52.6533 231.158 52.9504 231.158 53.2928C231.158 53.638 231.099 53.9372 230.982 54.1904C230.865 54.4422 230.702 54.6375 230.494 54.7761C230.286 54.9134 230.046 54.982 229.775 54.982C229.565 54.982 229.397 54.9473 229.272 54.878C229.146 54.8072 229.049 54.7273 228.981 54.6382C228.913 54.5476 228.861 54.4727 228.824 54.4132H228.781V56.1364H228.281ZM228.773 53.2843C228.773 53.5304 228.809 53.7476 228.881 53.9358C228.953 54.1225 229.059 54.2689 229.197 54.375C229.336 54.4797 229.506 54.5321 229.707 54.5321C229.916 54.5321 230.091 54.4769 230.231 54.3666C230.372 54.2548 230.478 54.1048 230.549 53.9167C230.621 53.7271 230.657 53.5163 230.657 53.2843C230.657 53.0551 230.622 52.8485 230.551 52.6646C230.482 52.4793 230.376 52.3329 230.235 52.2253C230.095 52.1164 229.919 52.0619 229.707 52.0619C229.503 52.0619 229.332 52.1136 229.193 52.2169C229.054 52.3187 228.95 52.4616 228.879 52.6455C228.808 52.828 228.773 53.0409 228.773 53.2843ZM233.246 54.982C232.952 54.982 232.694 54.9119 232.472 54.7719C232.251 54.6318 232.078 54.4359 231.954 54.1841C231.831 53.9322 231.769 53.638 231.769 53.3013C231.769 52.9617 231.831 52.6653 231.954 52.4121C232.078 52.1588 232.251 51.9622 232.472 51.8221C232.694 51.6821 232.952 51.612 233.246 51.612C233.541 51.612 233.798 51.6821 234.019 51.8221C234.241 51.9622 234.413 52.1588 234.537 52.4121C234.661 52.6653 234.723 52.9617 234.723 53.3013C234.723 53.638 234.661 53.9322 234.537 54.1841C234.413 54.4359 234.241 54.6318 234.019 54.7719C233.798 54.9119 233.541 54.982 233.246 54.982ZM233.246 54.5321C233.47 54.5321 233.654 54.4748 233.798 54.3602C233.942 54.2456 234.049 54.0949 234.118 53.9082C234.188 53.7214 234.222 53.5191 234.222 53.3013C234.222 53.0834 234.188 52.8804 234.118 52.6922C234.049 52.504 233.942 52.352 233.798 52.236C233.654 52.1199 233.47 52.0619 233.246 52.0619C233.023 52.0619 232.839 52.1199 232.695 52.236C232.55 52.352 232.443 52.504 232.374 52.6922C232.305 52.8804 232.27 53.0834 232.27 53.3013C232.27 53.5191 232.305 53.7214 232.374 53.9082C232.443 54.0949 232.55 54.2456 232.695 54.3602C232.839 54.4748 233.023 54.5321 233.246 54.5321ZM240.207 51.9261C240.161 51.7832 240.099 51.6552 240.023 51.542C239.948 51.4274 239.858 51.3298 239.753 51.2492C239.65 51.1685 239.533 51.107 239.401 51.0645C239.269 51.0221 239.125 51.0009 238.968 51.0009C238.711 51.0009 238.476 51.0674 238.266 51.2004C238.055 51.3333 237.887 51.5293 237.763 51.7882C237.638 52.0471 237.576 52.3647 237.576 52.741C237.576 53.1173 237.639 53.4349 237.765 53.6938C237.891 53.9527 238.061 54.1487 238.276 54.2817C238.491 54.4147 238.733 54.4812 239.002 54.4812C239.251 54.4812 239.47 54.4281 239.66 54.322C239.851 54.2145 239.999 54.0631 240.106 53.8679C240.213 53.6712 240.267 53.4399 240.267 53.1739L240.428 53.2079H239.121V52.741H240.776V53.2079C240.776 53.5658 240.7 53.8771 240.547 54.1416C240.396 54.4062 240.186 54.6113 239.919 54.757C239.653 54.9013 239.347 54.9735 239.002 54.9735C238.617 54.9735 238.279 54.8829 237.988 54.7019C237.698 54.5208 237.471 54.2633 237.309 53.9294C237.147 53.5955 237.067 53.1994 237.067 52.741C237.067 52.3972 237.113 52.0881 237.205 51.8137C237.298 51.5378 237.43 51.3029 237.599 51.1091C237.769 50.9153 237.97 50.7667 238.202 50.6635C238.434 50.5602 238.689 50.5085 238.968 50.5085C239.197 50.5085 239.411 50.5432 239.609 50.6125C239.808 50.6804 239.986 50.7774 240.142 50.9033C240.299 51.0278 240.429 51.177 240.534 51.351C240.639 51.5236 240.711 51.7153 240.751 51.9261H240.207ZM241.61 54.9141V51.6545H242.093V52.1468H242.127C242.187 51.9855 242.294 51.8547 242.45 51.7542C242.606 51.6538 242.781 51.6036 242.976 51.6036C243.013 51.6036 243.059 51.6043 243.114 51.6057C243.169 51.6071 243.211 51.6092 243.239 51.612V52.1214C243.222 52.1171 243.183 52.1107 243.123 52.1023C243.063 52.0924 243 52.0874 242.934 52.0874C242.775 52.0874 242.634 52.1206 242.509 52.1871C242.386 52.2522 242.289 52.3428 242.216 52.4588C242.146 52.5734 242.11 52.7042 242.11 52.8514V54.9141H241.61ZM244.792 54.9905C244.586 54.9905 244.398 54.9516 244.23 54.8737C244.061 54.7945 243.928 54.6806 243.829 54.5321C243.73 54.3821 243.68 54.201 243.68 53.9888C243.68 53.8021 243.717 53.6507 243.791 53.5347C243.864 53.4173 243.962 53.3253 244.086 53.2588C244.209 53.1923 244.344 53.1428 244.493 53.1103C244.643 53.0763 244.794 53.0494 244.945 53.0296C245.143 53.0042 245.304 52.9851 245.427 52.9723C245.551 52.9582 245.642 52.9348 245.698 52.9023C245.756 52.8698 245.785 52.8132 245.785 52.7325V52.7155C245.785 52.5062 245.728 52.3435 245.613 52.2275C245.5 52.1115 245.328 52.0534 245.098 52.0534C244.859 52.0534 244.671 52.1058 244.535 52.2105C244.4 52.3152 244.304 52.4269 244.249 52.5458L243.774 52.376C243.858 52.1779 243.972 52.0237 244.113 51.9134C244.256 51.8016 244.412 51.7238 244.58 51.68C244.75 51.6347 244.917 51.612 245.081 51.612C245.185 51.612 245.306 51.6248 245.442 51.6502C245.579 51.6743 245.711 51.7245 245.838 51.8009C245.967 51.8773 246.074 51.9926 246.159 52.1468C246.244 52.301 246.286 52.5076 246.286 52.7665V54.9141H245.785V54.4727H245.76C245.726 54.5434 245.669 54.6191 245.59 54.6997C245.511 54.7804 245.405 54.849 245.274 54.9056C245.142 54.9622 244.982 54.9905 244.792 54.9905ZM244.869 54.5406C245.067 54.5406 245.234 54.5017 245.369 54.4239C245.507 54.346 245.61 54.2456 245.679 54.1225C245.75 53.9994 245.785 53.87 245.785 53.7342V53.2758C245.764 53.3013 245.717 53.3246 245.645 53.3458C245.575 53.3656 245.492 53.3833 245.399 53.3989C245.307 53.413 245.217 53.4258 245.13 53.4371C245.043 53.447 244.973 53.4555 244.92 53.4625C244.789 53.4795 244.668 53.5071 244.555 53.5453C244.443 53.5821 244.352 53.638 244.283 53.7129C244.215 53.7865 244.181 53.887 244.181 54.0143C244.181 54.1883 244.245 54.3199 244.374 54.409C244.504 54.4967 244.669 54.5406 244.869 54.5406ZM247.701 52.9532V54.9141H247.2V51.6545H247.684V52.1638H247.727C247.803 51.9983 247.919 51.8653 248.075 51.7648C248.23 51.663 248.431 51.612 248.677 51.612C248.898 51.612 249.091 51.6573 249.257 51.7479C249.422 51.837 249.551 51.9728 249.643 52.1553C249.735 52.3364 249.781 52.5656 249.781 52.8429V54.9141H249.28V52.8768C249.28 52.6208 249.213 52.4213 249.08 52.2784C248.947 52.1341 248.765 52.0619 248.533 52.0619C248.373 52.0619 248.23 52.0966 248.104 52.1659C247.98 52.2352 247.881 52.3364 247.809 52.4694C247.737 52.6024 247.701 52.7637 247.701 52.9532ZM251.927 54.982C251.655 54.982 251.415 54.9134 251.207 54.7761C250.999 54.6375 250.837 54.4422 250.719 54.1904C250.602 53.9372 250.543 53.638 250.543 53.2928C250.543 52.9504 250.602 52.6533 250.719 52.4015C250.837 52.1497 251 51.9551 251.209 51.8179C251.419 51.6807 251.661 51.612 251.935 51.612C252.147 51.612 252.315 51.6474 252.438 51.7182C252.563 51.7875 252.657 51.8667 252.723 51.9558C252.789 52.0435 252.841 52.1157 252.877 52.1723H252.92V50.568H253.421V54.9141H252.937V54.4132H252.877C252.841 54.4727 252.788 54.5476 252.72 54.6382C252.653 54.7273 252.556 54.8072 252.43 54.878C252.304 54.9473 252.136 54.982 251.927 54.982ZM251.995 54.5321C252.196 54.5321 252.365 54.4797 252.504 54.375C252.643 54.2689 252.748 54.1225 252.82 53.9358C252.892 53.7476 252.928 53.5304 252.928 53.2843C252.928 53.0409 252.893 52.828 252.822 52.6455C252.752 52.4616 252.647 52.3187 252.508 52.2169C252.37 52.1136 252.198 52.0619 251.995 52.0619C251.782 52.0619 251.606 52.1164 251.464 52.2253C251.324 52.3329 251.219 52.4793 251.148 52.6646C251.079 52.8485 251.044 53.0551 251.044 53.2843C251.044 53.5163 251.079 53.7271 251.15 53.9167C251.222 54.1048 251.328 54.2548 251.468 54.3666C251.61 54.4769 251.785 54.5321 251.995 54.5321ZM255.774 54.982C255.46 54.982 255.189 54.9126 254.961 54.774C254.735 54.6339 254.56 54.4387 254.437 54.1883C254.316 53.9365 254.255 53.6436 254.255 53.3097C254.255 52.9759 254.316 52.6816 254.437 52.4269C254.56 52.1709 254.731 51.9714 254.951 51.8285C255.171 51.6842 255.429 51.612 255.723 51.612C255.893 51.612 256.061 51.6403 256.226 51.6969C256.392 51.7535 256.542 51.8455 256.678 51.9728C256.814 52.0987 256.922 52.2657 257.003 52.4736C257.083 52.6816 257.124 52.9377 257.124 53.2418V53.454H254.611V53.0211H256.615C256.615 52.8372 256.578 52.6731 256.504 52.5288C256.432 52.3845 256.329 52.2706 256.194 52.1871C256.061 52.1037 255.904 52.0619 255.723 52.0619C255.524 52.0619 255.351 52.1115 255.205 52.2105C255.061 52.3081 254.95 52.4354 254.872 52.5925C254.794 52.7495 254.756 52.9179 254.756 53.0975V53.3861C254.756 53.6323 254.798 53.841 254.883 54.0122C254.969 54.1819 255.089 54.3114 255.241 54.4005C255.394 54.4882 255.572 54.5321 255.774 54.5321C255.906 54.5321 256.025 54.5137 256.131 54.4769C256.238 54.4387 256.331 54.3821 256.409 54.3071C256.486 54.2307 256.547 54.136 256.589 54.0228L257.073 54.1586C257.022 54.3227 256.936 54.467 256.816 54.5915C256.696 54.7146 256.547 54.8108 256.37 54.8801C256.194 54.948 255.995 54.982 255.774 54.982Z" fill="#F1E9DA"/>
<path d="M60.7046 19.471C60.32 18.5305 59.5094 16.6598 57.6543 15.1944C57.0775 14.7423 56.4747 14.3838 55.8407 14.1239C55.134 13.8329 53.6894 13.3445 51.8967 13.5835C50.4624 13.7758 48.7268 14.4357 48.7528 15.0177C48.7684 15.3503 49.3504 15.6205 49.6466 15.7608C50.1143 15.9791 50.5404 15.9998 50.7742 15.9946C50.7638 16.6494 50.7638 17.3249 50.7794 18.0212C50.7846 18.3434 50.7482 18.941 50.7171 19.497C50.5768 19.2476 50.3377 19.0345 50.0363 18.9046C49.5998 18.7228 49.1374 18.7695 48.81 18.9878C48.8879 19.3723 49.1893 19.7309 49.6206 19.9127C49.9948 20.0686 50.3845 20.053 50.6963 19.9127C50.6859 20.131 50.6807 20.3285 50.6859 20.4792C49.7038 20.4324 49.5635 20.2245 48.8516 20.3492C48.5502 20.4012 47.8175 20.5311 47.2303 21.1235C46.3729 21.9913 46.4508 23.2281 46.4612 23.4983C46.5651 25.3482 48.1396 26.3511 48.2799 26.4342C48.9919 26.8759 49.9012 27.0838 50.3897 27.0007C50.4468 26.9903 50.6963 26.9435 51.034 26.9383C51.3666 26.9279 51.6057 26.9591 51.668 26.9643C52.1877 27.0162 52.9827 26.746 53.5491 26.3615C53.7154 26.2472 54.8794 25.4365 55.1548 23.8932C55.2172 23.5294 55.4302 22.3395 54.6923 21.3781C54.1571 20.6818 53.4036 20.474 53.1438 20.4064C52.3643 20.2037 52.1669 20.4843 51.0029 20.4843L51.0548 16.0362C51.5433 16.1038 52.0318 16.1401 52.5358 16.1142C54.1571 16.0414 55.4094 16.7585 56.3084 18.042C58.122 20.6195 58.5429 23.4931 57.8517 26.5174C57.4412 28.3205 56.35 29.682 54.6923 30.5394C52.9411 31.4488 51.06 31.6463 49.1426 31.3449C47.8071 31.137 46.6431 30.6693 45.6661 29.921C45.4583 29.76 44.445 28.9649 43.6655 27.5307C41.9871 24.4284 42.8757 21.056 42.99 20.635C43.4005 19.1697 44.5229 16.5403 46.165 14.285C46.5028 13.8173 47.2199 12.882 46.9601 11.9466C46.7782 11.2971 46.1702 10.819 45.5934 10.6216C44.9335 10.3981 44.2163 10.5228 41.587 12.0298C39.7526 13.0795 37.8975 14.0876 36.0476 15.1113C35.741 15.2827 35.398 15.3971 35.0603 15.4906C34.6757 15.5997 34.4731 15.3763 34.5978 14.9969C34.6913 14.7163 34.8316 14.4513 34.9615 14.1811C35.6319 12.8092 36.0112 11.375 35.9229 9.8265C35.7878 7.44654 33.8963 6.11626 31.6566 6.86974C30.9707 7.09838 30.0405 7.89863 28.1854 9.45755C27.9412 9.66541 27.6762 9.88885 27.3332 9.86807C26.6473 9.8265 26.2991 8.83398 25.7587 7.86745C24.9169 6.36049 23.9867 5.38876 22.7655 4.39624C21.8562 3.65316 20.9208 2.8633 19.4918 2.18257C18.915 1.90716 18.0212 1.49145 16.8416 1.268C16.0102 1.11211 14.0044 0.857483 11.8115 1.7097C10.9801 2.03187 7.74789 3.4401 6.60468 7.04642C5.80963 9.56148 6.02268 13.173 7.883 14.5448C8.51177 15.0073 9.74851 15.5322 9.94598 16.6442C9.98235 16.8417 10.0395 17.1794 9.85764 17.4756C9.45232 18.1356 8.41303 17.7199 7.06197 18.333C6.29809 18.6812 5.82522 19.1385 5.63815 19.6893C5.4199 20.3388 6.19936 20.8117 6.05386 21.8198C6.05386 21.8198 6.01749 22.0848 5.88758 22.4018C5.2744 23.8984 2.07341 24.1582 0.976962 26.1069C0.0831779 27.6918 -0.244196 29.6041 0.176713 31.5527C0.711944 34.0522 2.77492 35.3513 5.24322 34.7589C6.52154 34.4523 7.62838 33.7976 8.69884 33.0701C9.27044 32.6803 9.84205 32.275 10.4604 31.9632C11.006 31.6878 11.4841 31.6151 11.8998 31.7502C12.5442 31.958 12.8664 32.618 12.9599 32.7999C13.3236 33.5326 13.1158 34.0678 13.6095 34.5095C13.7809 34.6602 13.9524 34.7277 14.0459 34.7641C15.0904 35.159 16.3584 34.338 17.0547 33.8859C17.0807 33.8703 17.0962 33.8547 17.1118 33.8495C17.4236 33.6417 17.7198 33.4026 17.9952 33.1168C18.7279 32.3582 19.3307 31.4696 19.9699 30.6226C20.4739 29.9574 20.6038 29.656 21.0455 29.0948C21.7574 28.1906 22.0276 28.0399 22.2095 27.9568C22.7863 27.7022 23.519 27.7334 24.0958 28.0555C24.6155 28.3465 24.8337 28.7934 25.1871 29.5417C25.6911 30.607 25.8522 31.5008 25.8626 31.5735C26.3251 34.2704 26.1432 34.4471 26.0133 37.7105C26.0133 37.7105 25.6184 47.4693 24.5271 55.3003C24.47 55.7109 24.4388 55.9187 24.4232 56.0226C24.3037 57.0463 24.153 58.07 23.9919 59.0937C25.3845 59.4783 26.5849 60.107 27.5358 60.7358C28.4712 60.1954 29.656 59.6705 31.0226 59.3795C30.8616 58.6364 30.6849 57.7583 30.5082 56.719C30.3523 55.794 30.2588 55.0873 30.186 54.5625C29.9366 52.8061 29.8483 51.5122 29.6404 48.81C29.4585 46.4405 29.365 45.2609 29.3182 44.5022C29.1415 41.8156 28.9753 39.2798 28.9233 35.9437C28.9025 34.8057 28.7882 35.2785 28.9493 33.7716C29.1 32.3737 29.3702 30.9915 30.0405 29.7288C30.555 28.757 31.2825 28.0503 32.4049 27.8269C33.3402 27.6398 34.2392 27.8165 35.0551 28.2062C37.2064 29.2299 39.3369 30.3004 41.4467 31.3968C44.154 32.7999 46.8457 34.2445 49.8337 34.9824C51.3926 35.3669 52.9671 35.5384 54.5468 35.1382C55.7628 34.8265 56.8177 34.3172 57.7166 33.6365C59.4263 32.3374 60.1642 30.7421 60.5955 29.7859C62.8091 24.8493 60.9332 20.0478 60.6942 19.4607L60.7046 19.471Z" fill="#F1E9DA"/>
<path d="M33.9013 60.3618C31.4382 60.1592 29.3701 61.1153 28.0709 61.9571L27.4682 62.3469L26.8914 61.926C25.5091 60.9127 23.311 59.7383 20.6972 59.9201C16.5557 60.2111 13.9419 63.0016 13.4378 63.5732C13.0689 63.9889 12.7987 64.3579 12.6272 64.6125C13.8639 64.5969 15.1111 64.5865 16.3686 64.5813C20.1152 64.5761 23.7839 64.6385 27.3642 64.7632C30.6484 64.6749 34.0053 64.6385 37.4245 64.6541C38.7184 64.6593 40.0071 64.6749 41.2854 64.6957C39.4875 62.8509 37.7363 61.8376 36.5619 61.2816C35.7201 60.8815 34.9458 60.4502 33.9013 60.3618Z" fill="#F1E9DA"/>
<path d="M53.1645 20.3906C53.4243 20.4582 54.183 20.6712 54.7234 21.3727C55.4665 22.3393 55.2534 23.5396 55.1911 23.9086C54.9105 25.4675 53.7361 26.2833 53.5698 26.3977C52.9982 26.7822 52.1979 27.0576 51.6731 27.0056C51.6107 27.0005 51.3665 26.9693 51.0339 26.9797C50.691 26.9901 50.4415 27.0368 50.3844 27.042C49.8959 27.12 48.9762 26.9121 48.2591 26.4704C48.1239 26.3873 46.5338 25.374 46.4299 23.5085C46.4143 23.2382 46.3364 21.9911 47.2042 21.1181C47.7966 20.5205 48.5345 20.3906 48.8359 20.3334C49.5893 20.1983 49.7037 20.4426 50.8365 20.4686C52.1668 20.5049 52.3434 20.1776 53.1697 20.3958L53.1645 20.3906Z" fill="#BB4430"/>
<path d="M48.7788 18.9878C49.1218 18.7592 49.6102 18.7124 50.0675 18.8995C50.5248 19.0866 50.8366 19.4659 50.9197 19.8712C50.5768 20.0999 50.0883 20.1466 49.631 19.9596C49.1737 19.7725 48.862 19.3932 48.7788 18.9878Z" fill="#2D3A28"/>
</g>
<defs>
<clipPath id="clip0_163_96">
<rect width="268" height="71.0818" fill="white"/>
</clipPath>
</defs>
</svg>
